<svg version="1.1" id="Layer_1" xmlns="http://www.w3.org/2000/svg" xmlns:xlink="http://www.w3.org/1999/xlink" x="0px" y="0px"
	 width="100%" viewBox="0 0 128 128" enable-background="new 0 0 128 128" xml:space="preserve">
<path fill="#252528" opacity="1.000000" stroke="none" 
	d="
M129.000000,72.000000 
	C129.000000,90.965591 129.000000,109.931183 129.000000,128.948395 
	C86.445061,128.948395 43.890045,128.948395 1.000000,128.948395 
	C1.000000,110.313774 1.000000,91.625542 1.440590,72.444260 
	C9.590364,71.820518 8.837721,72.281433 9.025567,64.926193 
	C9.928543,29.569557 44.352463,3.615629 78.519051,12.466612 
	C103.612976,18.967285 120.623764,40.387421 120.912109,66.308075 
	C120.960114,70.623314 122.065346,72.579361 126.509895,71.943802 
	C127.320671,71.827866 128.169006,71.974548 129.000000,72.000000 
M16.605518,59.897766 
	C16.735756,65.358376 16.123741,70.958290 17.118143,76.256714 
	C23.039125,107.805283 58.368313,126.828194 89.731628,109.247147 
	C108.082443,98.960388 116.504044,78.751160 113.082855,58.066738 
	C109.154373,34.315147 88.514786,17.727247 63.233185,18.002888 
	C40.348560,18.252396 19.916618,36.328281 16.605518,59.897766 
z"/>
<path fill="#905203" opacity="1.000000" stroke="none" 
	d="
M129.000000,71.531342 
	C128.169006,71.974548 127.320671,71.827866 126.509895,71.943802 
	C122.065346,72.579361 120.960114,70.623314 120.912109,66.308075 
	C120.623764,40.387421 103.612976,18.967285 78.519051,12.466612 
	C44.352463,3.615629 9.928543,29.569557 9.025567,64.926193 
	C8.837721,72.281433 9.590364,71.820518 1.440590,71.975601 
	C1.000000,48.371731 1.000000,24.743465 1.000000,1.057599 
	C43.558975,1.057599 86.118050,1.057599 129.000000,1.057599 
	C129.000000,24.353235 129.000000,47.707958 129.000000,71.531342 
z"/>
<path fill="#F18E01" opacity="1.000000" stroke="none" 
	d="
M16.695742,59.495968 
	C19.916618,36.328281 40.348560,18.252396 63.233185,18.002888 
	C88.514786,17.727247 109.154373,34.315147 113.082855,58.066738 
	C116.504044,78.751160 108.082443,98.960388 89.731628,109.247147 
	C58.368313,126.828194 23.039125,107.805283 17.118143,76.256714 
	C16.123741,70.958290 16.735756,65.358376 16.695742,59.495968 
z"/>
</svg>